<svg width="24" height="24" viewBox="0 0 24 24" fill="none" xmlns="http://www.w3.org/2000/svg">
<path d="M12.0129 13.1629L16.9129 8.28789C17.0962 8.10456 17.3254 8.00872 17.6004 8.00039C17.8754 7.99206 18.1129 8.08789 18.3129 8.28789C18.4962 8.47122 18.5879 8.70456 18.5879 8.98789C18.5879 9.27122 18.4962 9.50456 18.3129 9.68789L12.7129 15.2879C12.5129 15.4879 12.2796 15.5879 12.0129 15.5879C11.7462 15.5879 11.5129 15.4879 11.3129 15.2879L5.71289 9.68789C5.52956 9.50456 5.43372 9.27539 5.42539 9.00039C5.41706 8.72539 5.51289 8.48789 5.71289 8.28789C5.89622 8.10456 6.12956 8.01289 6.41289 8.01289C6.69622 8.01289 6.92956 8.10456 7.11289 8.28789L12.0129 13.1629Z" fill="#1C1C1E"/>
</svg>
