<svg width="24" height="24" viewBox="0 0 24 24" fill="none" xmlns="http://www.w3.org/2000/svg">
<path d="M11.9998 10.425L7.0998 15.3C6.91647 15.4833 6.6873 15.5792 6.4123 15.5875C6.1373 15.5958 5.8998 15.5 5.6998 15.3C5.51647 15.1167 5.4248 14.8833 5.4248 14.6C5.4248 14.3167 5.51647 14.0833 5.6998 13.9L11.2998 8.3C11.4998 8.1 11.7331 8 11.9998 8C12.2665 8 12.4998 8.1 12.6998 8.3L18.2998 13.9C18.4831 14.0833 18.579 14.3125 18.5873 14.5875C18.5956 14.8625 18.4998 15.1 18.2998 15.3C18.1165 15.4833 17.8831 15.575 17.5998 15.575C17.3165 15.575 17.0831 15.4833 16.8998 15.3L11.9998 10.425Z" fill="#1C1C1E"/>
</svg>
