<svg width="24" height="24" viewBox="0 0 24 24" fill="none" xmlns="http://www.w3.org/2000/svg">
<path d="M9.9998 15.4L4.0998 21.3C3.91647 21.4834 3.68314 21.575 3.3998 21.575C3.11647 21.575 2.88314 21.4834 2.6998 21.3C2.51647 21.1167 2.4248 20.8834 2.4248 20.6C2.4248 20.3167 2.51647 20.0834 2.6998 19.9L8.5998 14H4.9998C4.71647 14 4.47897 13.9042 4.2873 13.7125C4.09564 13.5209 3.9998 13.2834 3.9998 13C3.9998 12.7167 4.09564 12.4792 4.2873 12.2875C4.47897 12.0959 4.71647 12 4.9998 12H10.9998C11.2831 12 11.5206 12.0959 11.7123 12.2875C11.904 12.4792 11.9998 12.7167 11.9998 13V19C11.9998 19.2834 11.904 19.5209 11.7123 19.7125C11.5206 19.9042 11.2831 20 10.9998 20C10.7165 20 10.479 19.9042 10.2873 19.7125C10.0956 19.5209 9.9998 19.2834 9.9998 19V15.4ZM15.3998 10H18.9998C19.2831 10 19.5206 10.0959 19.7123 10.2875C19.904 10.4792 19.9998 10.7167 19.9998 11C19.9998 11.2834 19.904 11.5209 19.7123 11.7125C19.5206 11.9042 19.2831 12 18.9998 12H12.9998C12.7165 12 12.479 11.9042 12.2873 11.7125C12.0956 11.5209 11.9998 11.2834 11.9998 11V5.00005C11.9998 4.71672 12.0956 4.47922 12.2873 4.28755C12.479 4.09588 12.7165 4.00005 12.9998 4.00005C13.2831 4.00005 13.5206 4.09588 13.7123 4.28755C13.904 4.47922 13.9998 4.71672 13.9998 5.00005V8.60005L19.8998 2.70005C20.0831 2.51672 20.3165 2.42505 20.5998 2.42505C20.8831 2.42505 21.1165 2.51672 21.2998 2.70005C21.4831 2.88338 21.5748 3.11672 21.5748 3.40005C21.5748 3.68338 21.4831 3.91672 21.2998 4.10005L15.3998 10Z" fill="#1C1C1E"/>
</svg>
