<svg width="10" height="10" viewBox="0 0 10 10" fill="none" xmlns="http://www.w3.org/2000/svg">
<path fill-rule="evenodd" clip-rule="evenodd" d="M6.30331 9.83883C6.10804 9.64357 6.10804 9.32699 6.30331 9.13173L9.13173 6.3033C9.327 6.10804 9.64358 6.10804 9.83884 6.3033C10.0341 6.49856 10.0341 6.81515 9.83884 7.01041L7.01041 9.83883C6.81515 10.0341 6.49857 10.0341 6.30331 9.83883Z" fill="#BCBCBC"/>
<path fill-rule="evenodd" clip-rule="evenodd" d="M3.47482 9.83883C3.27955 9.64357 3.27955 9.32699 3.47482 9.13173L9.13167 3.47487C9.32693 3.27961 9.64351 3.27961 9.83878 3.47487C10.034 3.67014 10.034 3.98672 9.83878 4.18198L4.18192 9.83883C3.98666 10.0341 3.67008 10.0341 3.47482 9.83883Z" fill="#BCBCBC"/>
<path fill-rule="evenodd" clip-rule="evenodd" d="M0.646447 9.83883C0.451184 9.64357 0.451184 9.32699 0.646447 9.13173L9.13173 0.646447C9.32699 0.451185 9.64357 0.451184 9.83883 0.646447C10.0341 0.841709 10.0341 1.15829 9.83883 1.35355L1.35355 9.83883C1.15829 10.0341 0.841709 10.0341 0.646447 9.83883Z" fill="#BCBCBC"/>
</svg>
