<svg width="24" height="24" viewBox="0 0 24 24" fill="none" xmlns="http://www.w3.org/2000/svg">
<path d="M5 22C4.71667 22 4.47917 21.9042 4.2875 21.7125C4.09583 21.5208 4 21.2833 4 21C4 20.7167 4.09583 20.4792 4.2875 20.2875C4.47917 20.0958 4.71667 20 5 20H19C19.2833 20 19.5208 20.0958 19.7125 20.2875C19.9042 20.4792 20 20.7167 20 21C20 21.2833 19.9042 21.5208 19.7125 21.7125C19.5208 21.9042 19.2833 22 19 22H5ZM12 17.375C11.85 17.375 11.7042 17.3417 11.5625 17.275C11.4208 17.2083 11.3 17.1083 11.2 16.975L6.25 10.625C6 10.2917 5.96667 9.9375 6.15 9.5625C6.33333 9.1875 6.63333 9 7.05 9H9V3C9 2.71667 9.09583 2.47917 9.2875 2.2875C9.47917 2.09583 9.71667 2 10 2H14C14.2833 2 14.5208 2.09583 14.7125 2.2875C14.9042 2.47917 15 2.71667 15 3V9H16.95C17.3667 9 17.6667 9.1875 17.85 9.5625C18.0333 9.9375 18 10.2917 17.75 10.625L12.8 16.975C12.7 17.1083 12.5792 17.2083 12.4375 17.275C12.2958 17.3417 12.15 17.375 12 17.375ZM12 14.75L14.9 11H13V4H11V11H9.1L12 14.75Z" fill="#1C1C1E"/>
</svg>
