<svg width="24" height="24" viewBox="0 0 24 24" fill="none" xmlns="http://www.w3.org/2000/svg">
<path d="M12.3589 16.3589C12.2657 16.4522 12.1574 16.5 12 16.5C11.8426 16.5 11.7343 16.4522 11.6411 16.3589C11.5478 16.2657 11.5 16.1574 11.5 16C11.5 15.8426 11.5478 15.7343 11.6411 15.6411C11.7343 15.5478 11.8426 15.5 12 15.5C12.1574 15.5 12.2657 15.5478 12.3589 15.6411C12.4522 15.7343 12.5 15.8426 12.5 16C12.5 16.1574 12.4522 16.2657 12.3589 16.3589ZM12.3589 12.3589C12.2657 12.4522 12.1574 12.5 12 12.5C11.8426 12.5 11.7343 12.4522 11.6411 12.3589C11.5478 12.2657 11.5 12.1574 11.5 12V8C11.5 7.84258 11.5478 7.73432 11.6411 7.64105C11.7343 7.54778 11.8426 7.5 12 7.5C12.1574 7.5 12.2657 7.54778 12.3589 7.64105C12.4522 7.73432 12.5 7.84258 12.5 8V12C12.5 12.1574 12.4522 12.2657 12.3589 12.3589ZM12 21.5C10.6817 21.5 9.44946 21.2502 8.2981 20.7534C7.13703 20.2524 6.13204 19.5749 5.27855 18.7214C4.42507 17.868 3.74759 16.863 3.24658 15.7019C2.74976 14.5505 2.5 13.3183 2.5 12C2.5 10.6817 2.74976 9.44946 3.24658 8.2981C3.74759 7.13703 4.42507 6.13204 5.27855 5.27855C6.13204 4.42507 7.13703 3.74759 8.2981 3.24658C9.44946 2.74976 10.6817 2.5 12 2.5C13.3183 2.5 14.5505 2.74976 15.7019 3.24658C16.863 3.74759 17.868 4.42507 18.7214 5.27855C19.5749 6.13204 20.2524 7.13703 20.7534 8.2981C21.2502 9.44946 21.5 10.6817 21.5 12C21.5 13.3183 21.2502 14.5505 20.7534 15.7019C20.2524 16.863 19.5749 17.868 18.7214 18.7214C17.868 19.5749 16.863 20.2524 15.7019 20.7534C14.5505 21.2502 13.3183 21.5 12 21.5ZM12 20.5C14.3631 20.5 16.3828 19.6743 18.0286 18.0286C19.6743 16.3828 20.5 14.3631 20.5 12C20.5 9.63686 19.6743 7.61718 18.0286 5.97145C16.3828 4.32572 14.3631 3.5 12 3.5C9.63686 3.5 7.61718 4.32572 5.97145 5.97145C4.32572 7.61718 3.5 9.63686 3.5 12C3.5 14.3631 4.32572 16.3828 5.97145 18.0286C7.61718 19.6743 9.63686 20.5 12 20.5Z" stroke="#1C1C1E"/>
</svg>
