<svg width="24" height="24" viewBox="0 0 24 24" fill="none" xmlns="http://www.w3.org/2000/svg">
<path d="M14.8002 11.9751L13.3752 10.5501L16.9502 6.0001H8.8252L6.8252 4.0001H19.0002C19.4169 4.0001 19.7169 4.18343 19.9002 4.5501C20.0835 4.91676 20.0502 5.26676 19.8002 5.6001L14.8002 11.9751ZM14.0002 16.8251V19.0001C14.0002 19.2834 13.9044 19.5209 13.7127 19.7126C13.521 19.9043 13.2835 20.0001 13.0002 20.0001H11.0002C10.7169 20.0001 10.4794 19.9043 10.2877 19.7126C10.096 19.5209 10.0002 19.2834 10.0002 19.0001V12.8251L2.1002 4.9251C1.91686 4.74176 1.8252 4.5126 1.8252 4.2376C1.8252 3.9626 1.91686 3.7251 2.1002 3.5251C2.3002 3.3251 2.5377 3.2251 2.8127 3.2251C3.0877 3.2251 3.3252 3.3251 3.5252 3.5251L20.5002 20.5001C20.7002 20.7001 20.796 20.9334 20.7877 21.2001C20.7794 21.4668 20.6752 21.7001 20.4752 21.9001C20.2752 22.0834 20.0419 22.1793 19.7752 22.1876C19.5085 22.1959 19.2752 22.1001 19.0752 21.9001L14.0002 16.8251Z" fill="#1C1C1E"/>
</svg>
