<svg width="24" height="24" viewBox="0 0 24 24" fill="none" xmlns="http://www.w3.org/2000/svg">
<path d="M5 21C4.45 21 3.97917 20.8042 3.5875 20.4125C3.19583 20.0208 3 19.55 3 19V4C3 3.71667 3.09583 3.47917 3.2875 3.2875C3.47917 3.09583 3.71667 3 4 3C4.28333 3 4.52083 3.09583 4.7125 3.2875C4.90417 3.47917 5 3.71667 5 4V19H20C20.2833 19 20.5208 19.0958 20.7125 19.2875C20.9042 19.4792 21 19.7167 21 20C21 20.2833 20.9042 20.5208 20.7125 20.7125C20.5208 20.9042 20.2833 21 20 21H5ZM7 18C6.71667 18 6.47917 17.9042 6.2875 17.7125C6.09583 17.5208 6 17.2833 6 17V10C6 9.71667 6.09583 9.47917 6.2875 9.2875C6.47917 9.09583 6.71667 9 7 9H9C9.28333 9 9.52083 9.09583 9.7125 9.2875C9.90417 9.47917 10 9.71667 10 10V17C10 17.2833 9.90417 17.5208 9.7125 17.7125C9.52083 17.9042 9.28333 18 9 18H7ZM12 18C11.7167 18 11.4792 17.9042 11.2875 17.7125C11.0958 17.5208 11 17.2833 11 17V5C11 4.71667 11.0958 4.47917 11.2875 4.2875C11.4792 4.09583 11.7167 4 12 4H14C14.2833 4 14.5208 4.09583 14.7125 4.2875C14.9042 4.47917 15 4.71667 15 5V17C15 17.2833 14.9042 17.5208 14.7125 17.7125C14.5208 17.9042 14.2833 18 14 18H12ZM17 18C16.7167 18 16.4792 17.9042 16.2875 17.7125C16.0958 17.5208 16 17.2833 16 17V14C16 13.7167 16.0958 13.4792 16.2875 13.2875C16.4792 13.0958 16.7167 13 17 13H19C19.2833 13 19.5208 13.0958 19.7125 13.2875C19.9042 13.4792 20 13.7167 20 14V17C20 17.2833 19.9042 17.5208 19.7125 17.7125C19.5208 17.9042 19.2833 18 19 18H17Z" fill="#1C1C1E"/>
</svg>
