<svg width="24" height="24" viewBox="0 0 24 24" fill="none" xmlns="http://www.w3.org/2000/svg">
<path d="M8.9998 16.3999L5.1248 20.2999C4.9248 20.4999 4.69147 20.5999 4.4248 20.5999C4.15814 20.5999 3.9248 20.4999 3.7248 20.2999C3.5248 20.0999 3.4248 19.8624 3.4248 19.5874C3.4248 19.3124 3.5248 19.0749 3.7248 18.8749L7.5998 14.9999H5.9998C5.71647 14.9999 5.47897 14.9041 5.2873 14.7124C5.09564 14.5207 4.9998 14.2832 4.9998 13.9999C4.9998 13.7166 5.09564 13.4791 5.2873 13.2874C5.47897 13.0957 5.71647 12.9999 5.9998 12.9999H9.9998C10.2831 12.9999 10.5206 13.0957 10.7123 13.2874C10.904 13.4791 10.9998 13.7166 10.9998 13.9999V17.9999C10.9998 18.2832 10.904 18.5207 10.7123 18.7124C10.5206 18.9041 10.2831 18.9999 9.9998 18.9999C9.71647 18.9999 9.47897 18.9041 9.2873 18.7124C9.09564 18.5207 8.9998 18.2832 8.9998 17.9999V16.3999ZM16.3998 8.9999H17.9998C18.2831 8.9999 18.5206 9.09574 18.7123 9.2874C18.904 9.47907 18.9998 9.71657 18.9998 9.9999C18.9998 10.2832 18.904 10.5207 18.7123 10.7124C18.5206 10.9041 18.2831 10.9999 17.9998 10.9999H13.9998C13.7165 10.9999 13.479 10.9041 13.2873 10.7124C13.0956 10.5207 12.9998 10.2832 12.9998 9.9999V5.9999C12.9998 5.71657 13.0956 5.47907 13.2873 5.2874C13.479 5.09574 13.7165 4.9999 13.9998 4.9999C14.2831 4.9999 14.5206 5.09574 14.7123 5.2874C14.904 5.47907 14.9998 5.71657 14.9998 5.9999V7.5999L18.8748 3.6999C19.0748 3.4999 19.3081 3.3999 19.5748 3.3999C19.8415 3.3999 20.0748 3.4999 20.2748 3.6999C20.4748 3.8999 20.5748 4.1374 20.5748 4.4124C20.5748 4.6874 20.4748 4.9249 20.2748 5.1249L16.3998 8.9999Z" fill="#1C1C1E"/>
</svg>
