<svg width="49" height="64" viewBox="0 0 49 64" fill="none" xmlns="http://www.w3.org/2000/svg">
<path fill-rule="evenodd" clip-rule="evenodd" d="M32.2003 0.583252C35.0349 0.583252 37.3337 2.88202 37.3337 5.71659V21.1166C37.3337 23.9511 35.0349 26.2499 32.2003 26.2499H16.8003C13.9658 26.2499 11.667 23.9511 11.667 21.1166V5.71659C11.667 2.88202 13.9658 0.583252 16.8003 0.583252H32.2003ZM26.8881 21.1166C32.092 21.1166 34.3395 20.9072 34.3395 16.5792L34.3387 16.58V12.2929H23.9742V15.4154H29.7179V15.8517C29.7179 17.3083 28.5115 17.496 27.3036 17.496H22.3403C20.0087 17.496 19.4055 16.9345 19.4055 14.3526V12.4798C19.4055 9.89945 20.0087 9.33799 22.3403 9.33799H27.3549C28.834 9.33799 29.6866 9.52488 29.6866 11.024H34.224V10.5443C34.224 7.6103 33.4965 5.71659 28.2517 5.71659H21.3008C17.1396 5.71659 14.662 6.75769 14.662 11.1691V15.664C14.662 20.0755 17.1396 21.1166 21.3008 21.1166H26.8881Z" fill="white"/>
<path d="M20.3489 44.338C20.4423 44.5153 20.5309 44.6997 20.6149 44.891C20.7036 45.0823 20.7876 45.2783 20.8669 45.479C20.9463 45.2737 21.0303 45.0753 21.1189 44.884C21.2076 44.688 21.2986 44.499 21.3919 44.317L24.0099 39.165C24.0566 39.0763 24.1033 39.0087 24.1499 38.962C24.2013 38.9107 24.2573 38.8733 24.3179 38.85C24.3786 38.8267 24.4463 38.8127 24.5209 38.808C24.6003 38.8033 24.6913 38.801 24.7939 38.801H26.5999V49H24.5139V43.134C24.5139 42.8493 24.5279 42.5413 24.5559 42.21L21.8539 47.453C21.7699 47.6163 21.6556 47.74 21.5109 47.824C21.3709 47.908 21.2099 47.95 21.0279 47.95H20.7059C20.5239 47.95 20.3606 47.908 20.2159 47.824C20.0759 47.74 19.9639 47.6163 19.8799 47.453L17.1639 42.203C17.1826 42.3663 17.1966 42.5297 17.2059 42.693C17.2153 42.8517 17.2199 42.9987 17.2199 43.134V49H15.1339V38.801H16.9399C17.0426 38.801 17.1313 38.8033 17.2059 38.808C17.2853 38.8127 17.3553 38.8267 17.4159 38.85C17.4766 38.8733 17.5303 38.9107 17.5769 38.962C17.6283 39.0087 17.6773 39.0763 17.7239 39.165L20.3489 44.338ZM30.6523 47.11H34.4323V49H28.2863V38.801H30.6523V47.11ZM6.57365 58.003C6.63365 58.117 6.69065 58.2355 6.74465 58.3585C6.80165 58.4815 6.85565 58.6075 6.90665 58.7365C6.95765 58.6045 7.01165 58.477 7.06865 58.354C7.12565 58.228 7.18415 58.1065 7.24415 57.9895L8.92715 54.6775C8.95715 54.6205 8.98715 54.577 9.01715 54.547C9.05015 54.514 9.08615 54.49 9.12515 54.475C9.16415 54.46 9.20765 54.451 9.25565 54.448C9.30665 54.445 9.36515 54.4435 9.43115 54.4435H10.5922V61H9.25115V57.229C9.25115 57.046 9.26015 56.848 9.27815 56.635L7.54115 60.0055C7.48715 60.1105 7.41365 60.19 7.32065 60.244C7.23065 60.298 7.12715 60.325 7.01015 60.325H6.80315C6.68615 60.325 6.58115 60.298 6.48815 60.244C6.39815 60.19 6.32615 60.1105 6.27215 60.0055L4.52615 56.6305C4.53815 56.7355 4.54715 56.8405 4.55315 56.9455C4.55915 57.0475 4.56215 57.142 4.56215 57.229V61H3.22115V54.4435H4.38215C4.44815 54.4435 4.50515 54.445 4.55315 54.448C4.60415 54.451 4.64915 54.46 4.68815 54.475C4.72715 54.49 4.76165 54.514 4.79165 54.547C4.82465 54.577 4.85615 54.6205 4.88615 54.6775L6.57365 58.003ZM18.1472 57.7195C18.1472 58.1935 18.0647 58.6345 17.8997 59.0425C17.7377 59.4505 17.5082 59.806 17.2112 60.109C16.9142 60.409 16.5557 60.6445 16.1357 60.8155C15.7187 60.9865 15.2552 61.072 14.7452 61.072C14.2352 61.072 13.7702 60.9865 13.3502 60.8155C12.9302 60.6445 12.5702 60.409 12.2702 60.109C11.9732 59.806 11.7422 59.4505 11.5772 59.0425C11.4152 58.6345 11.3342 58.1935 11.3342 57.7195C11.3342 57.2455 11.4152 56.8045 11.5772 56.3965C11.7422 55.9885 11.9732 55.6345 12.2702 55.3345C12.5702 55.0345 12.9302 54.799 13.3502 54.628C13.7702 54.457 14.2352 54.3715 14.7452 54.3715C15.2552 54.3715 15.7187 54.4585 16.1357 54.6325C16.5557 54.8035 16.9142 55.039 17.2112 55.339C17.5082 55.639 17.7377 55.993 17.8997 56.401C18.0647 56.809 18.1472 57.2485 18.1472 57.7195ZM16.5902 57.7195C16.5902 57.3955 16.5482 57.1045 16.4642 56.8465C16.3802 56.5855 16.2587 56.365 16.0997 56.185C15.9437 56.005 15.7517 55.867 15.5237 55.771C15.2957 55.675 15.0362 55.627 14.7452 55.627C14.4512 55.627 14.1887 55.675 13.9577 55.771C13.7297 55.867 13.5362 56.005 13.3772 56.185C13.2212 56.365 13.1012 56.5855 13.0172 56.8465C12.9332 57.1045 12.8912 57.3955 12.8912 57.7195C12.8912 58.0465 12.9332 58.3405 13.0172 58.6015C13.1012 58.8595 13.2212 59.0785 13.3772 59.2585C13.5362 59.4385 13.7297 59.5765 13.9577 59.6725C14.1887 59.7655 14.4512 59.812 14.7452 59.812C15.0362 59.812 15.2957 59.7655 15.5237 59.6725C15.7517 59.5765 15.9437 59.4385 16.0997 59.2585C16.2587 59.0785 16.3802 58.8595 16.4642 58.6015C16.5482 58.3405 16.5902 58.0465 16.5902 57.7195ZM19.6755 54.4435C19.7415 54.4435 19.797 54.4465 19.842 54.4525C19.887 54.4585 19.9275 54.4705 19.9635 54.4885C19.9995 54.5035 20.034 54.526 20.067 54.556C20.1 54.586 20.1375 54.6265 20.1795 54.6775L23.2935 58.615C23.2815 58.489 23.2725 58.3675 23.2665 58.2505C23.2605 58.1305 23.2575 58.018 23.2575 57.913V54.4435H24.5985V61H23.8065C23.6895 61 23.5905 60.982 23.5095 60.946C23.4285 60.91 23.3505 60.844 23.2755 60.748L20.184 56.842C20.193 56.956 20.2005 57.0685 20.2065 57.1795C20.2125 57.2875 20.2155 57.3895 20.2155 57.4855V61H18.8745V54.4435H19.6755ZM27.3422 61H25.8122V54.4435H27.3422V61ZM33.321 54.4435V55.6495H31.476V61H29.955V55.6495H28.11V54.4435H33.321ZM40.1463 57.7195C40.1463 58.1935 40.0638 58.6345 39.8988 59.0425C39.7368 59.4505 39.5073 59.806 39.2103 60.109C38.9133 60.409 38.5548 60.6445 38.1348 60.8155C37.7178 60.9865 37.2543 61.072 36.7443 61.072C36.2343 61.072 35.7693 60.9865 35.3493 60.8155C34.9293 60.6445 34.5693 60.409 34.2693 60.109C33.9723 59.806 33.7413 59.4505 33.5763 59.0425C33.4143 58.6345 33.3333 58.1935 33.3333 57.7195C33.3333 57.2455 33.4143 56.8045 33.5763 56.3965C33.7413 55.9885 33.9723 55.6345 34.2693 55.3345C34.5693 55.0345 34.9293 54.799 35.3493 54.628C35.7693 54.457 36.2343 54.3715 36.7443 54.3715C37.2543 54.3715 37.7178 54.4585 38.1348 54.6325C38.5548 54.8035 38.9133 55.039 39.2103 55.339C39.5073 55.639 39.7368 55.993 39.8988 56.401C40.0638 56.809 40.1463 57.2485 40.1463 57.7195ZM38.5893 57.7195C38.5893 57.3955 38.5473 57.1045 38.4633 56.8465C38.3793 56.5855 38.2578 56.365 38.0988 56.185C37.9428 56.005 37.7508 55.867 37.5228 55.771C37.2948 55.675 37.0353 55.627 36.7443 55.627C36.4503 55.627 36.1878 55.675 35.9568 55.771C35.7288 55.867 35.5353 56.005 35.3763 56.185C35.2203 56.365 35.1003 56.5855 35.0163 56.8465C34.9323 57.1045 34.8903 57.3955 34.8903 57.7195C34.8903 58.0465 34.9323 58.3405 35.0163 58.6015C35.1003 58.8595 35.2203 59.0785 35.3763 59.2585C35.5353 59.4385 35.7288 59.5765 35.9568 59.6725C36.1878 59.7655 36.4503 59.812 36.7443 59.812C37.0353 59.812 37.2948 59.7655 37.5228 59.6725C37.7508 59.5765 37.9428 59.4385 38.0988 59.2585C38.2578 59.0785 38.3793 58.8595 38.4633 58.6015C38.5473 58.3405 38.5893 58.0465 38.5893 57.7195ZM42.3945 58.5745V61H40.8735V54.4435H43.0065C43.4805 54.4435 43.884 54.493 44.217 54.592C44.553 54.688 44.826 54.823 45.036 54.997C45.249 55.171 45.4035 55.3765 45.4995 55.6135C45.5955 55.8505 45.6435 56.1085 45.6435 56.3875C45.6435 56.6005 45.615 56.8015 45.558 56.9905C45.501 57.1795 45.4155 57.355 45.3015 57.517C45.1905 57.676 45.0525 57.8185 44.8875 57.9445C44.7255 58.0705 44.538 58.174 44.325 58.255C44.427 58.306 44.5215 58.369 44.6085 58.444C44.6985 58.519 44.7765 58.6105 44.8425 58.7185L46.2375 61H44.8605C44.6055 61 44.4225 60.904 44.3115 60.712L43.2225 58.8085C43.1745 58.7245 43.1175 58.6645 43.0515 58.6285C42.9885 58.5925 42.8985 58.5745 42.7815 58.5745H42.3945ZM42.3945 57.526H43.0065C43.2135 57.526 43.389 57.5005 43.533 57.4495C43.68 57.3955 43.8 57.322 43.893 57.229C43.986 57.136 44.0535 57.028 44.0955 56.905C44.1375 56.779 44.1585 56.644 44.1585 56.5C44.1585 56.212 44.064 55.987 43.875 55.825C43.689 55.663 43.3995 55.582 43.0065 55.582H42.3945V57.526Z" fill="white"/>
</svg>
