<svg width="24" height="24" viewBox="0 0 24 24" fill="none" xmlns="http://www.w3.org/2000/svg">
<path d="M16.1502 19H5.0002C4.71686 19 4.47936 18.9042 4.2877 18.7125C4.09603 18.5208 4.0002 18.2833 4.0002 18C4.0002 17.7167 4.09603 17.4792 4.2877 17.2875C4.47936 17.0958 4.71686 17 5.0002 17H6.0002V10C6.0002 9.45 6.07103 8.90833 6.2127 8.375C6.35436 7.84167 6.56686 7.33333 6.8502 6.85L8.3502 8.35C8.23353 8.61667 8.14603 8.8875 8.0877 9.1625C8.02936 9.4375 8.0002 9.71667 8.0002 10V17H14.2002L2.1002 4.9C1.91686 4.71667 1.8252 4.48333 1.8252 4.2C1.8252 3.91667 1.91686 3.68333 2.1002 3.5C2.28353 3.31667 2.51686 3.225 2.8002 3.225C3.08353 3.225 3.31686 3.31667 3.5002 3.5L20.5002 20.5C20.6835 20.6833 20.7794 20.9125 20.7877 21.1875C20.796 21.4625 20.7002 21.7 20.5002 21.9C20.3169 22.0833 20.0835 22.175 19.8002 22.175C19.5169 22.175 19.2835 22.0833 19.1002 21.9L16.1502 19ZM13.5002 4.2C14.8335 4.53333 15.9169 5.2375 16.7502 6.3125C17.5835 7.3875 18.0002 8.61667 18.0002 10V12.75C18.0002 13.0833 17.896 13.3333 17.6877 13.5C17.4794 13.6667 17.2502 13.75 17.0002 13.75C16.7502 13.75 16.521 13.6625 16.3127 13.4875C16.1044 13.3125 16.0002 13.0583 16.0002 12.725V10C16.0002 8.9 15.6085 7.95833 14.8252 7.175C14.0419 6.39167 13.1002 6 12.0002 6C11.7335 6 11.4502 6.03333 11.1502 6.1C10.8502 6.16667 10.5835 6.25 10.3502 6.35C10.0669 6.46667 9.7877 6.49167 9.5127 6.425C9.2377 6.35833 9.0252 6.2 8.8752 5.95C8.74186 5.73333 8.69603 5.50417 8.7377 5.2625C8.77936 5.02083 8.90853 4.84167 9.1252 4.725C9.34186 4.60833 9.56686 4.50833 9.8002 4.425C10.0335 4.34167 10.2669 4.26667 10.5002 4.2V3.5C10.5002 3.08333 10.646 2.72917 10.9377 2.4375C11.2294 2.14583 11.5835 2 12.0002 2C12.4169 2 12.771 2.14583 13.0627 2.4375C13.3544 2.72917 13.5002 3.08333 13.5002 3.5V4.2ZM12.0002 22C11.5002 22 11.0544 21.8625 10.6627 21.5875C10.271 21.3125 10.0752 20.9417 10.0752 20.475C10.0752 20.3417 10.1294 20.2292 10.2377 20.1375C10.346 20.0458 10.4669 20 10.6002 20H13.4002C13.5335 20 13.6544 20.0458 13.7627 20.1375C13.871 20.2292 13.9252 20.3417 13.9252 20.475C13.9252 20.9417 13.7294 21.3125 13.3377 21.5875C12.946 21.8625 12.5002 22 12.0002 22Z" fill="#1C1C1E"/>
</svg>
