<svg width="24" height="24" viewBox="0 0 24 24" fill="none" xmlns="http://www.w3.org/2000/svg">
<path d="M10.9998 18.15V15C10.9998 14.7167 11.0956 14.4792 11.2873 14.2875C11.479 14.0959 11.7165 14 11.9998 14C12.2831 14 12.5206 14.0959 12.7123 14.2875C12.904 14.4792 12.9998 14.7167 12.9998 15V18.125L14.0748 17.025C14.2748 16.825 14.5165 16.725 14.7998 16.725C15.0831 16.725 15.3248 16.825 15.5248 17.025C15.7248 17.225 15.8248 17.4667 15.8248 17.75C15.8248 18.0334 15.7248 18.275 15.5248 18.475L12.6998 21.3C12.5998 21.4 12.4915 21.4709 12.3748 21.5125C12.2581 21.5542 12.1331 21.575 11.9998 21.575C11.8665 21.575 11.7415 21.5542 11.6248 21.5125C11.5081 21.4709 11.3998 21.4 11.2998 21.3L8.4498 18.45C8.2498 18.25 8.15397 18.0125 8.1623 17.7375C8.17064 17.4625 8.2748 17.225 8.4748 17.025C8.6748 16.825 8.9123 16.725 9.1873 16.725C9.4623 16.725 9.6998 16.825 9.8998 17.025L10.9998 18.15ZM5.8748 13L6.9748 14.075C7.1748 14.275 7.2748 14.5167 7.2748 14.8C7.2748 15.0834 7.1748 15.325 6.9748 15.525C6.7748 15.725 6.53314 15.825 6.2498 15.825C5.96647 15.825 5.7248 15.725 5.5248 15.525L2.6998 12.7C2.5998 12.6 2.52897 12.4917 2.4873 12.375C2.44564 12.2584 2.4248 12.1334 2.4248 12C2.4248 11.8667 2.44564 11.7417 2.4873 11.625C2.52897 11.5084 2.5998 11.4 2.6998 11.3L5.5248 8.47505C5.7248 8.27505 5.9623 8.17505 6.2373 8.17505C6.5123 8.17505 6.7498 8.27505 6.9498 8.47505C7.1498 8.67505 7.2498 8.91255 7.2498 9.18755C7.2498 9.46255 7.1498 9.70005 6.9498 9.90005L5.8498 11H8.9998C9.28314 11 9.52064 11.0959 9.7123 11.2875C9.90397 11.4792 9.9998 11.7167 9.9998 12C9.9998 12.2834 9.90397 12.5209 9.7123 12.7125C9.52064 12.9042 9.28314 13 8.9998 13H5.8748ZM18.1498 13H14.9998C14.7165 13 14.479 12.9042 14.2873 12.7125C14.0956 12.5209 13.9998 12.2834 13.9998 12C13.9998 11.7167 14.0956 11.4792 14.2873 11.2875C14.479 11.0959 14.7165 11 14.9998 11H18.1248L17.0248 9.92505C16.8248 9.72505 16.7248 9.48338 16.7248 9.20005C16.7248 8.91672 16.8248 8.67505 17.0248 8.47505C17.2248 8.27505 17.4665 8.17505 17.7498 8.17505C18.0331 8.17505 18.2748 8.27505 18.4748 8.47505L21.2998 11.3C21.3998 11.4 21.4706 11.5084 21.5123 11.625C21.554 11.7417 21.5748 11.8667 21.5748 12C21.5748 12.1334 21.554 12.2584 21.5123 12.375C21.4706 12.4917 21.3998 12.6 21.2998 12.7L18.4498 15.55C18.2498 15.75 18.0165 15.8459 17.7498 15.8375C17.4831 15.8292 17.2498 15.725 17.0498 15.525C16.8498 15.325 16.7498 15.0875 16.7498 14.8125C16.7498 14.5375 16.8498 14.3 17.0498 14.1L18.1498 13ZM10.9998 5.85005L9.8748 6.97505C9.6748 7.17505 9.44147 7.27505 9.1748 7.27505C8.90814 7.27505 8.6748 7.17505 8.4748 6.97505C8.2748 6.77505 8.1748 6.53755 8.1748 6.26255C8.1748 5.98755 8.2748 5.75005 8.4748 5.55005L11.2998 2.70005C11.3998 2.60005 11.5081 2.52922 11.6248 2.48755C11.7415 2.44588 11.8665 2.42505 11.9998 2.42505C12.1331 2.42505 12.2581 2.44588 12.3748 2.48755C12.4915 2.52922 12.5998 2.60005 12.6998 2.70005L15.5498 5.55005C15.7498 5.75005 15.8498 5.98338 15.8498 6.25005C15.8498 6.51672 15.7498 6.75005 15.5498 6.95005C15.3498 7.15005 15.1123 7.25005 14.8373 7.25005C14.5623 7.25005 14.3248 7.15005 14.1248 6.95005L12.9998 5.85005V9.00005C12.9998 9.28338 12.904 9.52088 12.7123 9.71255C12.5206 9.90422 12.2831 10 11.9998 10C11.7165 10 11.479 9.90422 11.2873 9.71255C11.0956 9.52088 10.9998 9.28338 10.9998 9.00005V5.85005Z" fill="#1C1C1E"/>
</svg>
