<svg width="24" height="24" viewBox="0 0 24 24" fill="none" xmlns="http://www.w3.org/2000/svg">
<path d="M6 22C5.45 22 4.97917 21.8042 4.5875 21.4125C4.19583 21.0208 4 20.55 4 20V4C4 3.45 4.19583 2.97917 4.5875 2.5875C4.97917 2.19583 5.45 2 6 2H13.175C13.4417 2 13.6958 2.05 13.9375 2.15C14.1792 2.25 14.3917 2.39167 14.575 2.575L19.425 7.425C19.6083 7.60833 19.75 7.82083 19.85 8.0625C19.95 8.30417 20 8.55833 20 8.825V20C20 20.55 19.8042 21.0208 19.4125 21.4125C19.0208 21.8042 18.55 22 18 22H6ZM13 8V4H6V20H18V9H14C13.7167 9 13.4792 8.90417 13.2875 8.7125C13.0958 8.52083 13 8.28333 13 8Z" fill="#1C1C1E"/>
<path fill-rule="evenodd" clip-rule="evenodd" d="M15 11C15.5523 11 16 11.4477 16 12V18C16 18.5523 15.5523 19 15 19C14.4477 19 14 18.5523 14 18V12C14 11.4477 14.4477 11 15 11ZM12 13C12.5523 13 13 13.4477 13 14V18C13 18.5523 12.5523 19 12 19C11.4477 19 11 18.5523 11 18V14C11 13.4477 11.4477 13 12 13ZM9 15C9.55228 15 10 15.4477 10 16V18C10 18.5523 9.55228 19 9 19C8.44772 19 8 18.5523 8 18V16C8 15.4477 8.44772 15 9 15Z" fill="#1C1C1E"/>
</svg>
