<svg width="24" height="24" viewBox="0 0 24 24" fill="none" xmlns="http://www.w3.org/2000/svg">
<path d="M4.89992 14.6L4.32492 16.35C4.25826 16.5333 4.14159 16.6875 3.97492 16.8125C3.80826 16.9375 3.62492 17 3.42492 17C3.09159 17 2.82076 16.8625 2.61242 16.5875C2.40409 16.3125 2.36659 16.0083 2.49992 15.675L5.49992 7.64995C5.58326 7.44995 5.70826 7.29162 5.87492 7.17495C6.04159 7.05828 6.23326 6.99995 6.44992 6.99995H7.19992C7.41659 6.99995 7.60826 7.05828 7.77492 7.17495C7.94159 7.29162 8.06659 7.44995 8.14992 7.64995L11.1749 15.725C11.2916 16.0416 11.2541 16.3333 11.0624 16.6C10.8708 16.8666 10.6083 17 10.2749 17C10.0749 17 9.89159 16.9375 9.72492 16.8125C9.55826 16.6875 9.44159 16.5333 9.37492 16.35L8.74992 14.6H4.89992ZM5.49992 12.9H8.09992L6.89992 9.14995H6.74992L5.49992 12.9ZM15.9499 15.2H20.0999C20.3499 15.2 20.5624 15.2875 20.7374 15.4625C20.9124 15.6375 20.9999 15.85 20.9999 16.1C20.9999 16.35 20.9124 16.5625 20.7374 16.7375C20.5624 16.9125 20.3499 17 20.0999 17H14.2999C14.1333 17 13.9916 16.9416 13.8749 16.825C13.7583 16.7083 13.6999 16.5666 13.6999 16.4V15.45C13.6999 15.3333 13.7166 15.2208 13.7499 15.1125C13.7833 15.0041 13.8416 14.9083 13.9249 14.825L18.7499 8.79995H14.7999C14.5499 8.79995 14.3374 8.71245 14.1624 8.53745C13.9874 8.36245 13.8999 8.14995 13.8999 7.89995C13.8999 7.64995 13.9874 7.43745 14.1624 7.26245C14.3374 7.08745 14.5499 6.99995 14.7999 6.99995H20.3499C20.5166 6.99995 20.6583 7.05828 20.7749 7.17495C20.8916 7.29162 20.9499 7.43328 20.9499 7.59995V8.54995C20.9499 8.66662 20.9333 8.77912 20.8999 8.88745C20.8666 8.99578 20.8083 9.09162 20.7249 9.17495L15.9499 15.2ZM9.59992 4.99995C9.48326 4.99995 9.40409 4.94995 9.36242 4.84995C9.32076 4.74995 9.34159 4.65828 9.42492 4.57495L11.6499 2.34995C11.7499 2.24995 11.8666 2.19995 11.9999 2.19995C12.1333 2.19995 12.2499 2.24995 12.3499 2.34995L14.5749 4.57495C14.6583 4.65828 14.6791 4.74995 14.6374 4.84995C14.5958 4.94995 14.5166 4.99995 14.3999 4.99995H9.59992ZM11.6499 21.65L9.42492 19.425C9.34159 19.3416 9.32076 19.25 9.36242 19.15C9.40409 19.05 9.48326 19 9.59992 19H14.3999C14.5166 19 14.5958 19.05 14.6374 19.15C14.6791 19.25 14.6583 19.3416 14.5749 19.425L12.3499 21.65C12.2499 21.75 12.1333 21.8 11.9999 21.8C11.8666 21.8 11.7499 21.75 11.6499 21.65Z" fill="#1C1C1E"/>
</svg>
