<svg width="24" height="24" viewBox="0 0 24 24" fill="none" xmlns="http://www.w3.org/2000/svg">
<path d="M4 16C3.71667 16 3.47917 15.9042 3.2875 15.7125C3.09583 15.5208 3 15.2833 3 15C3 14.7167 3.09583 14.4792 3.2875 14.2875C3.47917 14.0958 3.71667 14 4 14H10C10.2833 14 10.5208 14.0958 10.7125 14.2875C10.9042 14.4792 11 14.7167 11 15C11 15.2833 10.9042 15.5208 10.7125 15.7125C10.5208 15.9042 10.2833 16 10 16H4ZM4 11C3.71667 11 3.47917 10.9042 3.2875 10.7125C3.09583 10.5208 3 10.2833 3 10C3 9.71667 3.09583 9.47917 3.2875 9.2875C3.47917 9.09583 3.71667 9 4 9H10C10.2833 9 10.5208 9.09583 10.7125 9.2875C10.9042 9.47917 11 9.71667 11 10C11 10.2833 10.9042 10.5208 10.7125 10.7125C10.5208 10.9042 10.2833 11 10 11H4ZM4 6C3.71667 6 3.47917 5.90417 3.2875 5.7125C3.09583 5.52083 3 5.28333 3 5C3 4.71667 3.09583 4.47917 3.2875 4.2875C3.47917 4.09583 3.71667 4 4 4H17C17.2833 4 17.5208 4.09583 17.7125 4.2875C17.9042 4.47917 18 4.71667 18 5C18 5.28333 17.9042 5.52083 17.7125 5.7125C17.5208 5.90417 17.2833 6 17 6H4Z" fill="#1C1C1E"/>
<path d="M16.3059 15.5882V10.1941C16.3059 9.93483 16.4061 9.70502 16.6065 9.50467C16.8068 9.30432 17.0366 9.20415 17.2959 9.20415C17.5552 9.20415 17.785 9.30432 17.9853 9.50467C18.1857 9.70502 18.2858 9.93483 18.2858 10.1941V15.5882L19.4172 14.4568C19.6176 14.2565 19.8533 14.1563 20.1243 14.1563C20.3954 14.1563 20.6311 14.2565 20.8314 14.4568C21.0318 14.6572 21.132 14.8929 21.132 15.1639C21.132 15.435 21.0318 15.6707 20.8314 15.8711L18.003 18.6995C17.8027 18.8998 17.567 19 17.2959 19C17.0248 19 16.7891 18.8998 16.5888 18.6995L13.7604 15.8711C13.56 15.6707 13.4598 15.435 13.4598 15.1639C13.4598 14.8929 13.56 14.6572 13.7604 14.4568C13.9607 14.2565 14.1964 14.1563 14.4675 14.1563C14.7385 14.1563 14.9742 14.2565 15.1746 14.4568L16.3059 15.5882Z" fill="#1C1C1E"/>
</svg>
