<svg width="24" height="24" viewBox="0 0 24 24" fill="none" xmlns="http://www.w3.org/2000/svg">
<path d="M11.9998 18.0999L14.3248 15.7749C14.5248 15.5749 14.7665 15.4749 15.0498 15.4749C15.3331 15.4749 15.5748 15.5749 15.7748 15.7749C15.9748 15.9749 16.0748 16.2166 16.0748 16.4999C16.0748 16.7832 15.9748 17.0249 15.7748 17.2249L12.6998 20.2999C12.5998 20.3999 12.4915 20.4707 12.3748 20.5124C12.2581 20.5541 12.1331 20.5749 11.9998 20.5749C11.8665 20.5749 11.7415 20.5541 11.6248 20.5124C11.5081 20.4707 11.3998 20.3999 11.2998 20.2999L8.2248 17.2249C8.0248 17.0249 7.9248 16.7832 7.9248 16.4999C7.9248 16.2166 8.0248 15.9749 8.2248 15.7749C8.4248 15.5749 8.66647 15.4749 8.9498 15.4749C9.23314 15.4749 9.4748 15.5749 9.6748 15.7749L11.9998 18.0999ZM11.9998 5.9999L9.6748 8.3249C9.4748 8.5249 9.23314 8.6249 8.9498 8.6249C8.66647 8.6249 8.4248 8.5249 8.2248 8.3249C8.0248 8.1249 7.9248 7.88324 7.9248 7.5999C7.9248 7.31657 8.0248 7.0749 8.2248 6.8749L11.2998 3.7999C11.3998 3.6999 11.5081 3.62907 11.6248 3.5874C11.7415 3.54574 11.8665 3.5249 11.9998 3.5249C12.1331 3.5249 12.2581 3.54574 12.3748 3.5874C12.4915 3.62907 12.5998 3.6999 12.6998 3.7999L15.7748 6.8749C15.9748 7.0749 16.0748 7.31657 16.0748 7.5999C16.0748 7.88324 15.9748 8.1249 15.7748 8.3249C15.5748 8.5249 15.3331 8.6249 15.0498 8.6249C14.7665 8.6249 14.5248 8.5249 14.3248 8.3249L11.9998 5.9999Z" fill="#1C1C1E"/>
</svg>
