<svg width="24" height="24" viewBox="0 0 24 24" fill="none" xmlns="http://www.w3.org/2000/svg">
<path d="M5 20H19C19.2833 20 19.5208 20.0958 19.7125 20.2875C19.9042 20.4792 20 20.7167 20 21C20 21.2833 19.9042 21.5208 19.7125 21.7125C19.5208 21.9042 19.2833 22 19 22H5C4.71667 22 4.47917 21.9042 4.2875 21.7125C4.09583 21.5208 4 21.2833 4 21C4 20.7167 4.09583 20.4792 4.2875 20.2875C4.47917 20.0958 4.71667 20 5 20ZM10 18C9.71667 18 9.47917 17.9042 9.2875 17.7125C9.09583 17.5208 9 17.2833 9 17V11H7.05C6.63333 11 6.33333 10.8125 6.15 10.4375C5.96667 10.0625 6 9.70833 6.25 9.375L11.2 3.025C11.3 2.89167 11.4208 2.79167 11.5625 2.725C11.7042 2.65833 11.85 2.625 12 2.625C12.15 2.625 12.2958 2.65833 12.4375 2.725C12.5792 2.79167 12.7 2.89167 12.8 3.025L17.75 9.375C18 9.70833 18.0333 10.0625 17.85 10.4375C17.6667 10.8125 17.3667 11 16.95 11H15V17C15 17.2833 14.9042 17.5208 14.7125 17.7125C14.5208 17.9042 14.2833 18 14 18H10ZM11 16H13V9H14.9L12 5.25L9.1 9H11V16Z" fill="#1C1C1E"/>
</svg>
