<svg width="24" height="24" viewBox="0 0 24 24" fill="none" xmlns="http://www.w3.org/2000/svg">
<path d="M6.9998 18.4L4.5998 20.8C4.41647 20.9834 4.18314 21.075 3.8998 21.075C3.61647 21.075 3.38314 20.9834 3.1998 20.8C3.01647 20.6167 2.9248 20.3834 2.9248 20.1C2.9248 19.8167 3.01647 19.5834 3.1998 19.4L5.5998 17H3.9998C3.71647 17 3.47897 16.9042 3.2873 16.7125C3.09564 16.5209 2.9998 16.2834 2.9998 16C2.9998 15.7167 3.09564 15.4792 3.2873 15.2875C3.47897 15.0959 3.71647 15 3.9998 15H7.9998C8.28314 15 8.52064 15.0959 8.7123 15.2875C8.90397 15.4792 8.9998 15.7167 8.9998 16V20C8.9998 20.2834 8.90397 20.5209 8.7123 20.7125C8.52064 20.9042 8.28314 21 7.9998 21C7.71647 21 7.47897 20.9042 7.2873 20.7125C7.09564 20.5209 6.9998 20.2834 6.9998 20V18.4ZM16.9998 18.4V20C16.9998 20.2834 16.904 20.5209 16.7123 20.7125C16.5206 20.9042 16.2831 21 15.9998 21C15.7165 21 15.479 20.9042 15.2873 20.7125C15.0956 20.5209 14.9998 20.2834 14.9998 20V16C14.9998 15.7167 15.0956 15.4792 15.2873 15.2875C15.479 15.0959 15.7165 15 15.9998 15H19.9998C20.2831 15 20.5206 15.0959 20.7123 15.2875C20.904 15.4792 20.9998 15.7167 20.9998 16C20.9998 16.2834 20.904 16.5209 20.7123 16.7125C20.5206 16.9042 20.2831 17 19.9998 17H18.3998L20.7998 19.4C20.9831 19.5834 21.0748 19.8167 21.0748 20.1C21.0748 20.3834 20.9831 20.6167 20.7998 20.8C20.6165 20.9834 20.3831 21.075 20.0998 21.075C19.8165 21.075 19.5831 20.9834 19.3998 20.8L16.9998 18.4ZM5.5998 7.00005L3.1998 4.60005C3.01647 4.41672 2.9248 4.18338 2.9248 3.90005C2.9248 3.61672 3.01647 3.38338 3.1998 3.20005C3.38314 3.01672 3.61647 2.92505 3.8998 2.92505C4.18314 2.92505 4.41647 3.01672 4.5998 3.20005L6.9998 5.60005V4.00005C6.9998 3.71672 7.09564 3.47922 7.2873 3.28755C7.47897 3.09588 7.71647 3.00005 7.9998 3.00005C8.28314 3.00005 8.52064 3.09588 8.7123 3.28755C8.90397 3.47922 8.9998 3.71672 8.9998 4.00005V8.00005C8.9998 8.28338 8.90397 8.52088 8.7123 8.71255C8.52064 8.90422 8.28314 9.00005 7.9998 9.00005H3.9998C3.71647 9.00005 3.47897 8.90422 3.2873 8.71255C3.09564 8.52088 2.9998 8.28338 2.9998 8.00005C2.9998 7.71672 3.09564 7.47922 3.2873 7.28755C3.47897 7.09588 3.71647 7.00005 3.9998 7.00005H5.5998ZM18.3998 7.00005H19.9998C20.2831 7.00005 20.5206 7.09588 20.7123 7.28755C20.904 7.47922 20.9998 7.71672 20.9998 8.00005C20.9998 8.28338 20.904 8.52088 20.7123 8.71255C20.5206 8.90422 20.2831 9.00005 19.9998 9.00005H15.9998C15.7165 9.00005 15.479 8.90422 15.2873 8.71255C15.0956 8.52088 14.9998 8.28338 14.9998 8.00005V4.00005C14.9998 3.71672 15.0956 3.47922 15.2873 3.28755C15.479 3.09588 15.7165 3.00005 15.9998 3.00005C16.2831 3.00005 16.5206 3.09588 16.7123 3.28755C16.904 3.47922 16.9998 3.71672 16.9998 4.00005V5.60005L19.3998 3.20005C19.5831 3.01672 19.8165 2.92505 20.0998 2.92505C20.3831 2.92505 20.6165 3.01672 20.7998 3.20005C20.9831 3.38338 21.0748 3.61672 21.0748 3.90005C21.0748 4.18338 20.9831 4.41672 20.7998 4.60005L18.3998 7.00005Z" fill="#1C1C1E"/>
</svg>
