<?xml version="1.0" encoding="utf-8"?>
<!-- Generator: Adobe Illustrator 24.0.1, SVG Export Plug-In . SVG Version: 6.00 Build 0)  -->
<svg version="1.1" id="Layer_1" xmlns="http://www.w3.org/2000/svg" xmlns:xlink="http://www.w3.org/1999/xlink" x="0px" y="0px"
	 viewBox="0 0 590.1 590.1" style="enable-background:new 0 0 590.1 590.1;" xml:space="preserve">
<style type="text/css">
	.st0{fill:#FFFFFF;}
</style>
<g>
	<path class="st0" d="M343.2,185.6c-8.8-19.7-17.5-39.4-26.4-59.3c-25.5,0-50.9,0-76.8,0c-26.3,59.6-52.7,119.3-79.4,179.7
		c21.7,0,42.7,0,64.1,0c0,53.5,0,106.4,0,159.7c66.3,0,132.2,0,199,0c9.9-10.8,20.3-22.3,31-34c10.4,11.5,20.7,22.8,31.2,34.4
		c19.8,0,39.7,0,59.9,0c0,26.4,0,52.5,0,79c-166.4,0-332.8,0-499.4,0c0-166.3,0-332.7,0-499.5c166.4,0,332.8,0,499.4,0
		c0,26.7,0,53.3,0,80.3c-24.3,0-48.6,0-73.2,0c-5.6,15.5-11,30.7-16.8,46.8c-5.8-16.2-11.2-31.4-16.6-46.5c-31.7,0-63,0-94.8,0
		c0,19.8,0,39.5,0,59.2C344,185.5,343.6,185.5,343.2,185.6z"/>
	<path class="st0" d="M545.8,285.9c-12.7,0-24.9,0-37.5,0c0-31.6,0-63.1,0-94.5c-0.3-0.1-0.7-0.2-1-0.3
		c-11.6,31.6-23.2,63.1-34.8,94.8c-11.3,0-22.4,0-33.9,0c-11.6-31.5-23.1-62.9-34.7-94.3c-0.3,0.1-0.6,0.1-0.8,0.2
		c0,31.2,0,62.3,0,93.9c-27.1,0-53.9,0-81.3,0c-3.8-8.8-7.7-18.1-11.7-27.4c-21.4,0-42.5,0-64.2,0c-3.8,9-7.7,18.3-11.6,27.7
		c-14.1,0-27.8,0-42.2,0c20.7-46.8,41.2-93.3,61.7-139.8c16.6,0,32.9,0,49.5,0c20.2,45.7,40.4,91.5,60.6,137.2
		c0.3-0.1,0.6-0.1,0.8-0.2c0-45.5,0-91,0-136.8c20.2,0,39.9,0,60.2,0c10.1,28.2,20.3,56.7,31,86.5c10.7-29.6,20.9-58,31.2-86.6
		c19.6,0,39,0,58.7,0C545.8,192.7,545.8,239.1,545.8,285.9z M296.9,226.6c-6.4-15.3-12.4-29.9-18.9-45.5
		c-6.6,15.9-12.6,30.5-18.8,45.5C272.1,226.6,284,226.6,296.9,226.6z"/>
	<path class="st0" d="M496.5,306.2c16.5,0,32.6,0,49.7,0c-22.3,23.4-44.1,46.3-66.3,69.6c21.9,23.2,43.7,46.4,66.1,70.1
		c-17.1,0-33.4,0-50.4,0c-13.1-14.5-26.8-29.4-40.6-44.7c-13.9,15.2-27.5,30.1-40.8,44.7c-56.1,0-111.9,0-167.9,0
		c0-46.6,0-93,0-139.6c56.4,0,112.6,0,169.2,0c13.3,14.6,26.7,29.4,40.4,44.5C469.4,335.8,482.9,321.1,496.5,306.2z M365.1,339
		c-27.4,0-54.1,0-80.8,0c0,7.3,0,14.1,0,21.4c26.3,0,52.4,0,78.5,0c0,10.8,0,21,0,31.8c-26.3,0-52.4,0-78.4,0c0,7.4,0,14.3,0,21.5
		c26.9,0,53.5,0,80.7,0c0,10.6,0,20.7,0,32.1c22.4-23.8,43.9-46.6,65.6-69.6c-21.9-23.2-43.4-46-65.6-69.6
		C365.1,317.9,365.1,328,365.1,339z"/>
	<path class="st0" d="M507.4,375.9c12.8-13.5,25.2-26.6,38.2-40.3c0,27.2,0,53.6,0,80.9C532.8,402.8,520.4,389.6,507.4,375.9z"/>
</g>
</svg>
