<svg id="Layer_1" data-name="Layer 1" xmlns="http://www.w3.org/2000/svg" viewBox="0 0 30 30"><defs><style>.cls-1{fill:#dee1e3;}.cls-2{fill:#a7aeb5;}.cls-3{fill:#c3cbd3;}.cls-4{fill:#ccc1d4;}.cls-5{fill:#977fcc;}.cls-6{fill:#fff;}</style></defs><title>Artboard 6</title><path class="cls-1" d="M20,1H6A1,1,0,0,0,5,2V27a1,1,0,0,0,1,1H25a1,1,0,0,0,1-1V7Z"/><path class="cls-2" d="M26,7H20.75A.76.76,0,0,1,20,6.25V1Z"/><polygon class="cls-3" points="26 12.14 20.86 7 26 7 26 12.14"/><path class="cls-4" d="M5,22v2H22a1,1,0,0,0,1-1V22Z"/><rect class="cls-5" x="2" y="13" width="21" height="10" rx="1"/><path class="cls-6" d="M9.56,18.11a2.73,2.73,0,0,1-.18,1,2.16,2.16,0,0,1-.51.77,2.29,2.29,0,0,1-.8.51,2.63,2.63,0,0,1-1,.19H5.14V15.65H7a2.82,2.82,0,0,1,1,.18,2.23,2.23,0,0,1,1.31,1.29A2.64,2.64,0,0,1,9.56,18.11Zm-1,0a2.08,2.08,0,0,0-.11-.69,1.36,1.36,0,0,0-.29-.53,1.39,1.39,0,0,0-.46-.33A1.75,1.75,0,0,0,7,16.45H6.17v3.33H7a1.75,1.75,0,0,0,.62-.11,1.39,1.39,0,0,0,.46-.33,1.36,1.36,0,0,0,.29-.53A2.14,2.14,0,0,0,8.52,18.11Z"/><path class="cls-6" d="M15.08,18.11a2.51,2.51,0,0,1-.19,1,2.29,2.29,0,0,1-.51.8,2.33,2.33,0,0,1-.8.53,2.89,2.89,0,0,1-2.06,0,2.33,2.33,0,0,1-.8-.53,2.29,2.29,0,0,1-.51-.8,2.51,2.51,0,0,1-.19-1,2.54,2.54,0,0,1,.19-1,2.38,2.38,0,0,1,.51-.8,2.31,2.31,0,0,1,.8-.52,2.75,2.75,0,0,1,2.06,0,2.2,2.2,0,0,1,.8.53,2.34,2.34,0,0,1,.51.79A2.54,2.54,0,0,1,15.08,18.11Zm-1.05,0a2.09,2.09,0,0,0-.1-.69,1.69,1.69,0,0,0-.29-.53,1.43,1.43,0,0,0-.47-.33,1.8,1.8,0,0,0-1.24,0,1.43,1.43,0,0,0-.47.33,1.51,1.51,0,0,0-.29.53,2.09,2.09,0,0,0-.1.69,2.19,2.19,0,0,0,.1.7,1.46,1.46,0,0,0,.29.52,1.43,1.43,0,0,0,.47.33,1.8,1.8,0,0,0,1.24,0,1.43,1.43,0,0,0,.47-.33,1.63,1.63,0,0,0,.29-.52A2.19,2.19,0,0,0,14,18.11Z"/><path class="cls-6" d="M19.18,19.37a.18.18,0,0,1,.14.06l.41.43a2,2,0,0,1-.75.58,2.56,2.56,0,0,1-1.05.19,2.48,2.48,0,0,1-1-.19,2.2,2.2,0,0,1-.75-.52,2.35,2.35,0,0,1-.47-.8,3,3,0,0,1-.17-1,3.19,3.19,0,0,1,.08-.7,2.48,2.48,0,0,1,.23-.61,3.08,3.08,0,0,1,.37-.5,2.22,2.22,0,0,1,.49-.38,2,2,0,0,1,.59-.24,2.61,2.61,0,0,1,.69-.09,2.76,2.76,0,0,1,.51.05,3.47,3.47,0,0,1,.46.13,2,2,0,0,1,.38.21,2.91,2.91,0,0,1,.33.26l-.35.47a.2.2,0,0,1-.08.08.21.21,0,0,1-.12,0,.37.37,0,0,1-.17-.05,1.74,1.74,0,0,0-.2-.13,1.31,1.31,0,0,0-.31-.13,1.61,1.61,0,0,0-1,0,1.35,1.35,0,0,0-.45.33,1.37,1.37,0,0,0-.28.52,2.14,2.14,0,0,0-.11.7,2.2,2.2,0,0,0,.11.71,1.56,1.56,0,0,0,.31.52,1.06,1.06,0,0,0,.45.33,1.41,1.41,0,0,0,.54.11l.32,0,.26-.05.23-.11a1.46,1.46,0,0,0,.21-.16l.08-.05A.15.15,0,0,1,19.18,19.37Z"/></svg>