<svg id="Layer_1" data-name="Layer 1" xmlns="http://www.w3.org/2000/svg" viewBox="0 0 30 30"><defs><style>.cls-1{fill:#dee1e3;}.cls-2{fill:#a7aeb5;}.cls-3{fill:#c3cbd3;}.cls-4{fill:#a3d4dc;}.cls-5{fill:#309fb0;}.cls-6{fill:#fff;}</style></defs><title>Artboard 5</title><path class="cls-1" d="M20,1H6A1,1,0,0,0,5,2V27a1,1,0,0,0,1,1H25a1,1,0,0,0,1-1V7Z"/><path class="cls-2" d="M26,7H20.75A.76.76,0,0,1,20,6.25V1Z"/><polygon class="cls-3" points="26 12.14 20.86 7 26 7 26 12.14"/><path class="cls-4" d="M5,22v2H22a1,1,0,0,0,1-1V22Z"/><rect class="cls-5" x="2" y="13" width="21" height="10" rx="1"/><path class="cls-6" d="M9.09,18.81a2.48,2.48,0,0,1-.1.75,1.57,1.57,0,0,1-.31.57,1.34,1.34,0,0,1-.51.37,1.81,1.81,0,0,1-.72.13l-.37,0a2.79,2.79,0,0,1-.38-.07c0-.1,0-.2,0-.3l0-.3a.21.21,0,0,1,.07-.13.21.21,0,0,1,.15,0l.15,0a.72.72,0,0,0,.22,0,.8.8,0,0,0,.32-.05.53.53,0,0,0,.23-.16.83.83,0,0,0,.14-.3,2.07,2.07,0,0,0,0-.46V15.65h1Z"/><path class="cls-6" d="M11.74,15.65a2.88,2.88,0,0,1,.88.12,1.73,1.73,0,0,1,.6.33,1.23,1.23,0,0,1,.35.5,1.69,1.69,0,0,1,.12.64,1.76,1.76,0,0,1-.12.66,1.28,1.28,0,0,1-.36.52,1.57,1.57,0,0,1-.61.34,2.75,2.75,0,0,1-.86.12H11.1v1.7h-1V15.65Zm0,2.45a1,1,0,0,0,.7-.23.85.85,0,0,0,.23-.63.93.93,0,0,0-.06-.34.62.62,0,0,0-.17-.25.7.7,0,0,0-.29-.17,1.22,1.22,0,0,0-.41-.06H11.1V18.1Z"/><path class="cls-6" d="M16.74,18.07h1.69v2a2.36,2.36,0,0,1-.81.4,2.92,2.92,0,0,1-.9.13,3,3,0,0,1-1.1-.19,2.39,2.39,0,0,1-.84-.52,2.36,2.36,0,0,1-.54-.8,2.56,2.56,0,0,1-.19-1,2.71,2.71,0,0,1,.18-1,2.17,2.17,0,0,1,.52-.8,2.4,2.4,0,0,1,.81-.52,3,3,0,0,1,1.07-.19,3.36,3.36,0,0,1,.57.05,2.75,2.75,0,0,1,.9.34,1.84,1.84,0,0,1,.34.27l-.29.45a.28.28,0,0,1-.18.13.32.32,0,0,1-.24,0l-.24-.13-.25-.11L17,16.47l-.36,0a1.59,1.59,0,0,0-.62.12,1.32,1.32,0,0,0-.47.34,1.4,1.4,0,0,0-.3.52,2.22,2.22,0,0,0,0,1.41,1.46,1.46,0,0,0,.32.54,1.39,1.39,0,0,0,.51.34,1.88,1.88,0,0,0,.65.11,1.94,1.94,0,0,0,.44,0,2.35,2.35,0,0,0,.37-.14v-.83H17a.25.25,0,0,1-.16-.05.17.17,0,0,1-.05-.14Z"/></svg>