<svg id="Layer_1" data-name="Layer 1" xmlns="http://www.w3.org/2000/svg" viewBox="0 0 30 30"><defs><style>.cls-1{fill:#dee1e3;}.cls-2{fill:#a7aeb5;}.cls-3{fill:#c3cbd3;}.cls-4{fill:#965ba0;}.cls-5{fill:#fff;}</style></defs><title>Artboard 1</title><path class="cls-1" d="M20,1H6A1,1,0,0,0,5,2V27a1,1,0,0,0,1,1H25a1,1,0,0,0,1-1V7Z"/><path class="cls-2" d="M26,7H20.75A.76.76,0,0,1,20,6.25V1Z"/><polygon class="cls-3" points="26 12.14 20.86 7 26 7 26 12.14"/><path class="cls-3" d="M5,22v2H22a1,1,0,0,0,1-1V22Z"/><rect class="cls-4" x="2" y="13" width="21" height="10" rx="1"/><path class="cls-5" d="M10.58,15.65v4.93h-.9V17.35c0-.08,0-.15,0-.22L8.29,19.8a.37.37,0,0,1-.36.22H7.79A.37.37,0,0,1,7.58,20a.39.39,0,0,1-.15-.16L6,17.12a1.79,1.79,0,0,0,0,.23v3.23h-.9V15.65H6l.09,0a.18.18,0,0,1,.07.05.35.35,0,0,1,.07.09l1.38,2.63.12.24c0,.09.07.17.1.26,0-.09.07-.18.11-.26l.12-.25,1.37-2.62a.35.35,0,0,1,.06-.09l.08-.05.09,0h.89Z"/><path class="cls-5" d="M16.37,18.11a2.7,2.7,0,0,1-.18,1,2.29,2.29,0,0,1-.51.8,2.43,2.43,0,0,1-.8.53,2.91,2.91,0,0,1-2.07,0,2.43,2.43,0,0,1-.8-.53,2.29,2.29,0,0,1-.51-.8,2.7,2.7,0,0,1-.18-1,2.73,2.73,0,0,1,.18-1,2.38,2.38,0,0,1,.51-.8,2.4,2.4,0,0,1,.8-.52,2.78,2.78,0,0,1,2.07,0,2.28,2.28,0,0,1,.8.53,2.34,2.34,0,0,1,.51.79A2.73,2.73,0,0,1,16.37,18.11Zm-1,0a2.39,2.39,0,0,0-.1-.69,1.53,1.53,0,0,0-.3-.53,1.39,1.39,0,0,0-.46-.33,1.83,1.83,0,0,0-1.25,0,1.29,1.29,0,0,0-.46.33,1.53,1.53,0,0,0-.3.53,2.39,2.39,0,0,0-.1.69,2.52,2.52,0,0,0,.1.7,1.48,1.48,0,0,0,.3.52,1.29,1.29,0,0,0,.46.33,1.83,1.83,0,0,0,1.25,0,1.39,1.39,0,0,0,.46-.33,1.48,1.48,0,0,0,.3-.52A2.52,2.52,0,0,0,15.33,18.11Z"/><path class="cls-5" d="M21.26,15.65l-2,4.93h-.93l-2-4.93h.82a.33.33,0,0,1,.34.22l1.07,2.84.12.35c0,.13.08.26.11.4,0-.14.06-.27.1-.4a3.58,3.58,0,0,1,.11-.35l1.06-2.84a.33.33,0,0,1,.12-.15.32.32,0,0,1,.22-.07Z"/></svg>