<svg id="Layer_1" data-name="Layer 1" xmlns="http://www.w3.org/2000/svg" viewBox="0 0 30 30"><defs><style>.cls-1{fill:#dee1e3;}.cls-2{fill:#a7aeb5;}.cls-3{fill:#c3cbd3;}.cls-4{fill:#d8cfbd;}.cls-5{fill:#ef5621;}.cls-6{fill:#fff;}</style></defs><title>Artboard 3</title><path class="cls-1" d="M20,1H6A1,1,0,0,0,5,2V27a1,1,0,0,0,1,1H25a1,1,0,0,0,1-1V7Z"/><path class="cls-2" d="M26,7H20.75A.76.76,0,0,1,20,6.25V1Z"/><polygon class="cls-3" points="26 12.14 20.86 7 26 7 26 12.14"/><path class="cls-4" d="M5,22v2H22a1,1,0,0,0,1-1V22Z"/><rect class="cls-5" x="2" y="13" width="21" height="10" rx="1"/><path class="cls-6" d="M7.81,15.65a2.81,2.81,0,0,1,.87.12,1.69,1.69,0,0,1,.61.33,1.34,1.34,0,0,1,.35.5,1.91,1.91,0,0,1,.11.64,1.76,1.76,0,0,1-.12.66,1.28,1.28,0,0,1-.36.52,1.6,1.6,0,0,1-.6.34,2.84,2.84,0,0,1-.86.12H7.16v1.7h-1V15.65Zm0,2.45a1,1,0,0,0,.7-.23.85.85,0,0,0,.22-.63.93.93,0,0,0-.06-.34.53.53,0,0,0-.17-.25.66.66,0,0,0-.28-.17,1.31,1.31,0,0,0-.41-.06H7.16V18.1Z"/><path class="cls-6" d="M14.82,18.11a2.73,2.73,0,0,1-.18,1,2.29,2.29,0,0,1-.51.78,2.41,2.41,0,0,1-.8.5,2.63,2.63,0,0,1-1,.19H10.4V15.65h1.9a2.82,2.82,0,0,1,1,.18,2.23,2.23,0,0,1,1.31,1.29A2.64,2.64,0,0,1,14.82,18.11Zm-1,0a2.08,2.08,0,0,0-.11-.69,1.3,1.3,0,0,0-.29-.53,1.39,1.39,0,0,0-.46-.33,1.71,1.71,0,0,0-.62-.11h-.87v3.33h.87a1.71,1.71,0,0,0,.62-.11,1.39,1.39,0,0,0,.46-.33,1.36,1.36,0,0,0,.29-.53A2.14,2.14,0,0,0,13.78,18.11Z"/><path class="cls-6" d="M16.6,16.45v1.36h1.77v.8H16.6v2h-1V15.65h3.14v.8Z"/></svg>