<svg id="Layer_1" data-name="Layer 1" xmlns="http://www.w3.org/2000/svg" viewBox="0 0 30 30"><defs><style>.cls-1{fill:#dee1e3;}.cls-2{fill:#a7aeb5;}.cls-3{fill:#c3cbd3;}.cls-4{fill:#c2d8e7;}.cls-5{fill:#4789b6;}.cls-6{fill:#fff;}</style></defs><title>Artboard 2</title><path class="cls-1" d="M20,1H6A1,1,0,0,0,5,2V27a1,1,0,0,0,1,1H25a1,1,0,0,0,1-1V7Z"/><path class="cls-2" d="M26,7H20.75A.76.76,0,0,1,20,6.25V1Z"/><polygon class="cls-3" points="26 12.14 20.86 7 26 7 26 12.14"/><path class="cls-4" d="M5,22v2H22a1,1,0,0,0,1-1V22Z"/><rect class="cls-5" x="2" y="13" width="21" height="10" rx="1"/><path class="cls-6" d="M7.81,15.65a2.81,2.81,0,0,1,.87.12,1.69,1.69,0,0,1,.61.33,1.34,1.34,0,0,1,.35.5,1.69,1.69,0,0,1,.11.64,1.76,1.76,0,0,1-.12.66,1.28,1.28,0,0,1-.36.52,1.6,1.6,0,0,1-.6.34,2.84,2.84,0,0,1-.86.12H7.16v1.7h-1V15.65Zm0,2.45a1,1,0,0,0,.7-.23.85.85,0,0,0,.22-.63.93.93,0,0,0-.06-.34.53.53,0,0,0-.17-.25.66.66,0,0,0-.28-.17,1.31,1.31,0,0,0-.41-.06H7.16V18.1Z"/><path class="cls-6" d="M14.63,15.65v4.93H14.1a.54.54,0,0,1-.2,0,.42.42,0,0,1-.16-.14l-2.46-3.12c0,.08,0,.16,0,.23v3.07h-.9V15.65h.65s.06,0,.08,0a.18.18,0,0,1,.07.05.3.3,0,0,1,.08.08L13.75,19c0-.09,0-.17,0-.25v-3Z"/><path class="cls-6" d="M18.06,18.07h1.69v2a2.41,2.41,0,0,1-.8.4,3,3,0,0,1-.91.13,3,3,0,0,1-1.1-.19,2.39,2.39,0,0,1-.84-.52,2.46,2.46,0,0,1-.54-.8,2.56,2.56,0,0,1-.19-1,2.71,2.71,0,0,1,.18-1,2.17,2.17,0,0,1,.52-.8,2.4,2.4,0,0,1,.81-.52A3,3,0,0,1,18,15.59a3.27,3.27,0,0,1,.57.05,2.75,2.75,0,0,1,.9.34,1.84,1.84,0,0,1,.34.27l-.29.45a.28.28,0,0,1-.18.13.32.32,0,0,1-.24,0l-.24-.13-.25-.11-.29-.07-.36,0a1.59,1.59,0,0,0-.62.12,1.32,1.32,0,0,0-.47.34,1.4,1.4,0,0,0-.3.52,2.22,2.22,0,0,0,0,1.41,1.61,1.61,0,0,0,.32.54,1.39,1.39,0,0,0,.51.34,1.67,1.67,0,0,0,.65.11,1.48,1.48,0,0,0,.44,0,1.63,1.63,0,0,0,.37-.13v-.83h-.55a.25.25,0,0,1-.16-.05.22.22,0,0,1-.05-.14Z"/></svg>